REM DIRINDEX 1\4,1\2\5,1\2\6,1\3\7,1\3\8
REM DIRNAME folder01,folder02,folder03,folder04,folder05,folder06,folder07,folder08
TITLE ""
FILE "102_Day51_Check3_Sentences.mp3" MP3
  TRACK 01 AUDIO
    TITLE "0:"
    INDEX 01 00:00:00
  TRACK 02 AUDIO
    TITLE "4:cjc124_3336"
    INDEX 01 00:00:25
  TRACK 03 AUDIO
    TITLE "0:"
    INDEX 01 00:02:00
  TRACK 04 AUDIO
    TITLE "7:cjc124_3337"
    INDEX 01 00:02:47
  TRACK 05 AUDIO
    TITLE "0:"
    INDEX 01 00:08:26
  TRACK 06 AUDIO
    TITLE "8:cjc124_3338"
    INDEX 01 00:08:44
  TRACK 07 AUDIO
    TITLE "0:"
    INDEX 01 00:13:47
  TRACK 08 AUDIO
    TITLE "7:cjc124_3339"
    INDEX 01 00:14:11
  TRACK 09 AUDIO
    TITLE "0:"
    INDEX 01 00:16:14
  TRACK 10 AUDIO
    TITLE "8:cjc124_3340"
    INDEX 01 00:16:32
  TRACK 11 AUDIO
    TITLE "0:"
    INDEX 01 00:18:44
  TRACK 12 AUDIO
    TITLE "7:cjc124_3341"
    INDEX 01 00:19:07
  TRACK 13 AUDIO
    TITLE "0:"
    INDEX 01 00:21:41
  TRACK 14 AUDIO
    TITLE "8:cjc124_3342"
    INDEX 01 00:21:60
  TRACK 15 AUDIO
    TITLE "0:"
    INDEX 01 00:24:72
  TRACK 16 AUDIO
    TITLE "7:cjc124_3343"
    INDEX 01 00:25:35
  TRACK 17 AUDIO
    TITLE "0:"
    INDEX 01 00:28:72
  TRACK 18 AUDIO
    TITLE "8:cjc124_3344"
    INDEX 01 00:29:13
  TRACK 19 AUDIO
    TITLE "0:"
    INDEX 01 00:32:19
  TRACK 20 AUDIO
    TITLE "7:cjc124_3345"
    INDEX 01 00:32:58
  TRACK 21 AUDIO
    TITLE "0:"
    INDEX 01 00:36:05
  TRACK 22 AUDIO
    TITLE "8:cjc124_3346"
    INDEX 01 00:36:27
  TRACK 23 AUDIO
    TITLE "0:"
    INDEX 01 00:39:52
  TRACK 24 AUDIO
    TITLE "7:cjc124_3347"
    INDEX 01 00:40:15
  TRACK 25 AUDIO
    TITLE "0:"
    INDEX 01 00:42:55
  TRACK 26 AUDIO
    TITLE "8:cjc124_3348"
    INDEX 01 00:42:70
  TRACK 27 AUDIO
    TITLE "0:"
    INDEX 01 00:46:23
  TRACK 28 AUDIO
    TITLE "7:cjc124_3349"
    INDEX 01 00:46:64
  TRACK 29 AUDIO
    TITLE "0:"
    INDEX 01 00:52:39
  TRACK 30 AUDIO
    TITLE "8:cjc124_3350"
    INDEX 01 00:52:55
  TRACK 31 AUDIO
    TITLE "0:"
    INDEX 01 00:57:50
  TRACK 32 AUDIO
    TITLE "7:cjc124_3351"
    INDEX 01 00:58:11
  TRACK 33 AUDIO
    TITLE "0:"
    INDEX 01 01:01:05
  TRACK 34 AUDIO
    TITLE "8:cjc124_3352"
    INDEX 01 01:01:31
  TRACK 35 AUDIO
    TITLE "0:"
    INDEX 01 01:04:19
  TRACK 36 AUDIO
    TITLE "7:cjc124_3353"
    INDEX 01 01:04:60
  TRACK 37 AUDIO
    TITLE "0:"
    INDEX 01 01:07:15
  TRACK 38 AUDIO
    TITLE "8:cjc124_3354"
    INDEX 01 01:07:31
  TRACK 39 AUDIO
    TITLE "0:"
    INDEX 01 01:10:43
  TRACK 40 AUDIO
    TITLE "7:cjc124_3355"
    INDEX 01 01:11:07
  TRACK 41 AUDIO
    TITLE "0:"
    INDEX 01 01:14:47
  TRACK 42 AUDIO
    TITLE "8:cjc124_3356"
    INDEX 01 01:14:61
  TRACK 43 AUDIO
    TITLE "0:"
    INDEX 01 01:18:70
  TRACK 44 AUDIO
    TITLE "7:cjc124_3357"
    INDEX 01 01:19:34
  TRACK 45 AUDIO
    TITLE "0:"
    INDEX 01 01:22:50
  TRACK 46 AUDIO
    TITLE "8:cjc124_3358"
    INDEX 01 01:22:66
  TRACK 47 AUDIO
    TITLE "0:"
    INDEX 01 01:25:49
  TRACK 48 AUDIO
    TITLE "7:cjc124_3359"
    INDEX 01 01:26:13
  TRACK 49 AUDIO
    TITLE "0:"
    INDEX 01 01:28:37
  TRACK 50 AUDIO
    TITLE "8:cjc124_3360"
    INDEX 01 01:28:55
  TRACK 51 AUDIO
    TITLE "0:"
    INDEX 01 01:31:41
  TRACK 52 AUDIO
    TITLE "7:cjc124_3361"
    INDEX 01 01:32:04
  TRACK 53 AUDIO
    TITLE "0:"
    INDEX 01 01:36:35
  TRACK 54 AUDIO
    TITLE "8:cjc124_3362"
    INDEX 01 01:36:50
  TRACK 55 AUDIO
    TITLE "0:"
    INDEX 01 01:40:25
  TRACK 56 AUDIO
    TITLE "7:cjc124_3363"
    INDEX 01 01:40:64
  TRACK 57 AUDIO
    TITLE "0:"
    INDEX 01 01:43:54
  TRACK 58 AUDIO
    TITLE "8:cjc124_3364"
    INDEX 01 01:43:70
  TRACK 59 AUDIO
    TITLE "0:"
    INDEX 01 01:47:17
  TRACK 60 AUDIO
    TITLE "7:cjc124_3365"
    INDEX 01 01:47:56
  TRACK 61 AUDIO
    TITLE "0:"
    INDEX 01 01:49:65
  TRACK 62 AUDIO
    TITLE "8:cjc124_3366"
    INDEX 01 01:50:15
  TRACK 63 AUDIO
    TITLE "0:"
    INDEX 01 01:52:38
  TRACK 64 AUDIO
    TITLE "7:cjc124_3367"
    INDEX 01 01:53:00
  TRACK 65 AUDIO
    TITLE "0:"
    INDEX 01 01:55:34
  TRACK 66 AUDIO
    TITLE "8:cjc124_3368"
    INDEX 01 01:55:58
  TRACK 67 AUDIO
    TITLE "0:"
    INDEX 01 01:58:34
